<?xml version="1.0" standalone="no"?>
<!DOCTYPE svg PUBLIC "-//W3C//DTD SVG 20010904//EN"
 "http://www.w3.org/TR/2001/REC-SVG-20010904/DTD/svg10.dtd">
<svg version="1.0" xmlns="http://www.w3.org/2000/svg"
 width="1170.000000pt" height="651.000000pt" viewBox="0 0 1170.000000 651.000000"
 preserveAspectRatio="xMidYMid meet">
<metadata>
Created by potrace 1.16, written by Peter Selinger 2001-2019
</metadata>
<g transform="translate(0.000000,651.000000) scale(0.100000,-0.100000)"
fill="#000000" stroke="none">
<path d="M970 6501 c0 -3 -23 -6 -51 -6 -28 0 -53 -3 -55 -7 -3 -4 -10 -5 -17
-2 -7 2 -48 -2 -90 -10 -43 -8 -84 -13 -92 -10 -8 4 -15 2 -15 -2 0 -5 -17
-10 -37 -11 -21 -1 -47 -2 -58 -3 -11 0 -23 -6 -27 -13 -6 -9 -12 -9 -28 1
-25 15 -52 17 -30 1 11 -8 6 -9 -22 -5 -23 3 -38 1 -38 -6 0 -6 -10 -8 -25 -4
-14 4 -31 3 -38 -1 -7 -4 -23 -9 -37 -10 -14 -1 -52 -4 -85 -7 -33 -3 -71 -8
-85 -12 -14 -4 -36 -6 -49 -5 -15 2 -21 -1 -16 -8 4 -8 -6 -10 -34 -5 -37 6
-41 4 -41 -14 0 -15 5 -19 20 -15 14 4 34 -7 65 -36 54 -50 44 -54 -15 -7 -58
46 -101 31 -47 -17 l22 -19 -22 6 -23 7 0 -343 0 -343 106 0 c58 1 107 -3 110
-6 9 -15 -39 -20 -126 -13 l-90 7 0 -34 0 -34 128 -1 c111 0 120 1 70 9 -32 5
-58 14 -58 20 0 24 329 -25 338 -51 5 -17 -44 -16 -129 4 -39 9 -73 14 -75 11
-6 -5 85 -27 112 -27 28 0 8 -24 -27 -33 -24 -7 -59 -4 -122 8 -101 21 -127
15 -35 -7 35 -8 62 -19 61 -24 -4 -17 -52 -15 -147 5 -101 22 -123 25 -113 15
3 -4 27 -10 53 -15 25 -5 65 -14 88 -20 l41 -12 -40 -17 c-26 -12 -54 -16 -80
-13 -35 4 -41 3 -41 -14 0 -18 6 -19 42 -15 44 5 204 -41 204 -59 0 -23 -149
4 -253 46 -9 4 -17 3 -17 -3 0 -6 32 -21 72 -34 39 -13 73 -29 75 -35 4 -12
-85 -29 -124 -25 l-23 3 0 -176 c0 -180 2 -189 39 -166 11 7 45 -6 115 -41
l99 -51 -53 -24 -53 -23 -65 35 c-37 19 -70 35 -75 35 -16 0 -2 -43 18 -54 11
-6 31 -17 44 -25 l24 -14 -29 -12 c-16 -6 -37 -10 -47 -7 -14 4 -17 -2 -17
-32 0 -23 4 -35 10 -31 10 6 118 -48 130 -64 3 -4 21 -17 40 -29 42 -25 85
-61 79 -65 -45 -33 -96 -50 -104 -36 -6 9 -139 89 -149 89 -3 0 -6 -14 -6 -30
0 -23 6 -33 25 -42 29 -13 32 -25 7 -30 -14 -3 -13 -5 6 -10 12 -3 20 -2 16 3
-9 15 23 10 36 -6 15 -18 14 -20 -22 -29 -15 -3 -30 -2 -33 4 -3 5 -13 10 -21
10 -11 0 -14 -16 -14 -70 0 -38 3 -70 8 -70 4 0 16 7 26 15 22 16 46 20 46 7
0 -5 -18 -14 -40 -21 l-40 -12 0 -84 c0 -57 4 -85 13 -88 10 -4 10 -6 0 -6
-10 -1 -13 -266 -13 -1291 l0 -1289 42 -12 42 -11 -24 -19 c-14 -11 -33 -17
-42 -15 -17 4 -18 -35 -18 -720 l0 -724 1290 0 c997 0 1290 3 1290 12 0 9 3 9
12 0 9 -9 91 -12 310 -12 279 0 297 1 292 18 -5 16 -5 16 6 0 10 -16 34 -18
255 -18 224 0 244 1 248 18 4 16 5 16 6 0 1 -17 29 -18 449 -18 489 0 454 -4
488 55 19 33 -5 86 -48 104 -23 10 -38 23 -38 33 0 10 -9 22 -19 28 -11 5 -23
19 -26 30 -3 11 -13 20 -21 20 -8 0 -14 4 -14 8 0 5 -17 13 -37 18 -35 8 -38
12 -41 46 -2 26 -9 39 -22 43 -20 6 -123 -36 -135 -55 -10 -15 -65 -42 -105
-50 -19 -4 -42 -9 -50 -11 -11 -3 -14 3 -12 21 2 14 8 30 12 35 4 6 10 28 13
50 8 64 26 137 36 149 5 6 9 22 10 36 1 45 10 99 21 119 5 11 10 31 10 45 0
14 4 27 9 30 5 3 11 23 14 43 3 21 10 56 17 78 7 22 14 59 17 83 3 23 9 42 13
42 8 0 18 39 27 107 3 24 9 43 13 43 7 0 29 95 34 147 2 13 6 26 9 30 4 3 7
16 7 28 0 17 8 24 30 29 17 3 39 2 48 -3 28 -16 56 -24 70 -22 6 1 12 -3 12
-9 0 -6 -4 -8 -10 -5 -6 4 -10 -5 -10 -19 0 -21 5 -26 25 -26 18 0 25 5 25 19
0 11 -6 21 -12 23 -9 3 -8 9 5 22 9 10 17 21 17 25 0 4 19 12 43 18 44 12 98
8 129 -8 9 -5 28 -9 42 -9 14 0 30 -8 35 -17 8 -14 11 -15 11 -3 1 13 2 13 9
0 20 -35 23 -60 7 -60 -9 0 -16 -6 -16 -14 0 -13 -20 -35 -96 -104 -8 -7 -14
-22 -14 -32 0 -11 -8 -23 -17 -29 -16 -8 -15 -11 11 -21 16 -6 32 -7 35 -3 3
4 38 8 76 8 60 0 76 -4 111 -28 55 -37 86 -30 104 24 13 40 25 49 33 27 2 -7
7 11 11 40 5 28 12 52 17 52 5 0 7 -17 4 -38 -2 -20 -9 -91 -15 -157 -22 -242
-61 -555 -75 -602 -7 -26 -14 -79 -14 -118 0 -38 -5 -115 -10 -170 -17 -162
-28 -145 95 -145 l106 0 43 48 c25 26 44 40 45 33 0 -8 -12 -27 -27 -43 -29
-30 -24 -50 7 -30 12 7 20 8 20 2 0 -6 67 -10 184 -10 l185 0 3 37 c3 32 9 40
50 62 62 35 65 38 21 36 -20 -2 -39 -8 -41 -14 -7 -22 -32 -11 -32 14 0 17 7
28 23 34 13 5 29 16 36 25 12 14 11 16 -7 16 -12 0 -24 -4 -27 -10 -14 -22
-24 -7 -23 34 0 34 5 46 22 55 28 14 57 34 72 47 9 8 3 10 -22 10 -19 -1 -34
-6 -34 -12 0 -7 -7 -14 -15 -18 -8 -3 -15 -1 -15 3 0 5 -3 16 -6 25 -4 11 2
19 20 26 15 5 43 22 64 36 30 21 32 25 12 19 -14 -3 -32 -7 -40 -7 -8 0 -23
-8 -32 -16 -17 -14 -18 -12 -18 30 0 50 21 71 40 40 8 -13 10 -14 9 -2 -3 30
1 38 24 45 21 7 21 7 2 12 -19 5 -35 20 -35 34 0 4 19 19 43 33 l42 25 -34 -6
c-23 -4 -36 -2 -42 8 -7 11 -9 9 -9 -7 0 -18 -17 -34 -36 -34 -3 0 -4 19 -2
43 3 37 6 42 26 39 12 -2 22 2 22 8 0 10 78 50 128 65 20 6 22 3 22 -34 0 -37
-4 -42 -38 -60 l-37 -20 38 4 c33 4 37 2 37 -18 0 -16 -11 -27 -40 -40 -22 -9
-40 -20 -40 -23 0 -6 33 0 64 12 13 5 16 -2 16 -41 0 -38 -4 -48 -20 -52 -11
-3 -20 -9 -20 -13 0 -5 -6 -10 -12 -13 -7 -2 -2 -2 12 0 13 3 29 5 35 6 15 3
6 -46 -11 -59 -19 -15 -18 -22 3 -20 13 1 17 -8 19 -39 1 -22 -3 -46 -9 -53
-7 -9 -7 -16 1 -24 27 -27 13 -53 -40 -81 -29 -15 -44 -25 -33 -22 11 4 34 9
51 12 31 5 31 5 32 -44 2 -53 0 -56 -73 -82 -29 -11 -29 -11 -2 -6 15 3 38 8
52 11 21 5 25 3 25 -15 0 -12 6 -21 15 -21 8 0 15 9 15 20 0 11 5 20 10 20 6
0 10 -9 10 -20 0 -11 5 -20 11 -20 6 0 8 11 4 28 -5 25 -2 30 32 44 33 14 129
38 153 38 4 0 -5 -14 -21 -31 -16 -17 -29 -35 -29 -39 0 -13 -69 -33 -91 -27
-10 3 -19 1 -19 -4 0 -5 111 -9 260 -9 216 0 260 2 260 14 0 8 -7 17 -16 20
-9 3 -14 15 -12 28 3 21 14 25 127 46 68 13 124 22 126 20 1 -2 5 -24 7 -50
l5 -47 -61 -14 -61 -15 65 -1 c37 0 113 10 175 23 61 14 126 26 145 28 32 3
35 0 38 -25 2 -16 9 -27 18 -27 11 0 14 9 12 32 l-3 32 85 19 c47 10 106 22
132 26 44 7 46 7 51 -18 3 -14 1 -29 -5 -32 -5 -3 -49 -14 -96 -24 -148 -29
-156 -33 -72 -34 70 0 112 5 168 23 16 6 22 3 22 -8 0 -21 28 -20 32 1 2 12
31 22 118 39 152 31 147 31 161 -16 7 -22 18 -40 26 -40 15 0 16 13 4 58 -9
30 -8 34 14 42 30 11 60 1 60 -20 0 -9 7 -14 20 -12 16 3 18 1 7 -9 -6 -7 -12
-23 -12 -36 l0 -23 935 0 c816 1 935 2 935 15 0 8 4 15 10 15 5 0 7 -7 4 -15
-5 -13 16 -15 157 -14 92 0 155 4 144 8 -11 5 -25 6 -31 4 -7 -2 -15 0 -19 6
-3 7 3 11 16 11 19 0 20 2 8 16 -13 16 -15 137 -2 157 8 13 58 -71 66 -110 3
-17 2 -45 -3 -62 -7 -26 -6 -31 9 -31 12 0 17 7 17 21 -1 32 22 35 30 5 4 -19
13 -26 30 -26 21 0 24 5 24 34 0 19 4 37 9 40 4 3 6 16 4 28 -2 13 0 34 5 48
9 24 9 24 36 -18 15 -24 24 -47 21 -52 -3 -5 -1 -11 5 -15 5 -3 10 -19 10 -36
l0 -29 64 0 c55 0 64 3 69 20 4 15 14 20 42 20 28 0 38 -5 42 -20 6 -24 53
-28 53 -5 0 19 24 19 40 0 10 -12 43 -15 181 -15 l169 0 -12 25 c-6 14 -9 27
-7 28 2 2 40 30 84 63 44 32 82 62 83 66 2 5 10 8 18 8 8 0 14 4 14 9 0 23 32
19 55 -7 91 -102 111 -153 64 -167 -10 -4 -19 -11 -19 -16 0 -14 28 -11 55 7
23 15 25 15 31 0 5 -12 20 -16 64 -16 55 0 59 2 62 24 2 19 43 54 168 145
l165 121 27 -30 c15 -16 30 -30 33 -30 3 0 5 582 5 1293 l0 1293 -67 47 c-38
26 -102 70 -143 99 -184 127 -349 260 -343 276 7 17 53 15 53 -2 0 -10 -7 -12
-22 -9 -23 5 -23 5 -3 -10 11 -9 22 -11 26 -6 3 5 21 11 39 14 44 5 81 33 102
76 23 45 64 89 83 89 14 0 20 17 16 48 -1 6 2 12 7 12 4 0 28 18 52 40 25 22
50 45 57 50 7 6 34 10 62 10 27 0 56 3 65 6 17 7 22 44 6 44 -5 0 -10 7 -10
15 0 9 -9 15 -25 15 -23 0 -25 4 -25 40 0 30 7 47 25 66 14 14 25 31 25 39 0
8 5 15 10 15 6 0 10 28 10 64 0 62 -1 64 -27 64 -14 -1 -32 7 -38 16 -7 9 -17
16 -24 16 -17 0 -14 4 39 58 l50 50 0 1226 0 1226 -1850 0 -1850 0 0 -40 0
-40 -40 0 -40 0 0 -80 0 -80 -40 0 -40 0 0 -40 0 -40 -40 0 -40 0 0 -120 0
-120 -40 0 -40 0 0 -40 0 -40 -80 0 -80 0 0 -40 0 -40 -40 0 -40 0 0 -80 0
-80 -40 0 -40 0 0 -40 0 -40 -57 -1 c-32 -1 -50 -3 -40 -6 12 -3 17 -15 17
-44 l0 -39 43 -2 c38 -1 39 -2 8 -5 -18 -3 -46 1 -61 7 -39 16 -70 5 -70 -26
0 -28 7 -30 30 -9 13 12 28 13 76 6 l59 -9 -62 -1 c-41 -1 -67 -6 -77 -17 -16
-15 -13 -39 4 -29 4 3 11 -2 14 -11 3 -8 2 -13 -3 -9 -16 9 -41 -6 -41 -26 0
-15 -7 -19 -40 -19 l-40 0 0 -45 c0 -38 -3 -45 -19 -45 -11 0 -22 -4 -26 -9
-3 -5 -18 -12 -34 -16 -16 -3 -42 -18 -58 -32 -15 -15 -28 -25 -28 -23 0 4
-56 -7 -165 -32 -25 -6 -60 -12 -78 -13 -18 -2 -40 -9 -49 -16 -8 -7 -22 -14
-32 -15 -9 -2 -32 -7 -51 -13 -19 -5 -64 -17 -100 -26 -36 -9 -74 -20 -85 -25
-11 -4 -38 -13 -60 -18 -22 -5 -112 -29 -200 -52 -88 -23 -193 -50 -233 -60
-186 -49 -316 -149 -394 -304 -45 -88 -55 -132 -77 -336 -11 -102 -25 -219
-31 -260 -6 -41 -15 -118 -20 -170 -22 -229 -31 -308 -40 -345 -12 -50 -27
-159 -35 -245 -14 -150 -27 -256 -35 -275 -5 -11 -11 -83 -14 -160 -5 -129
-62 -626 -86 -755 -6 -30 -11 -61 -12 -68 -1 -7 -7 -11 -15 -8 -7 3 -13 2 -13
-2 0 -12 -111 -32 -142 -25 -21 4 -28 1 -28 -10 0 -8 7 -17 15 -21 24 -9 6
-36 -25 -36 -16 0 -30 -6 -32 -12 -3 -9 -9 -8 -21 4 -22 22 -21 28 3 28 18 0
20 6 18 40 -3 46 -20 52 -48 18 -12 -15 -15 -28 -10 -39 5 -9 6 -25 3 -37 -3
-13 -1 -22 6 -22 6 0 11 -13 11 -30 0 -29 -2 -30 -43 -30 -51 0 -145 -26 -168
-46 -20 -18 -29 -18 -29 1 0 24 -13 18 -61 -25 -24 -22 -52 -47 -62 -56 -12
-10 -28 -13 -43 -10 -18 5 -22 3 -18 -8 8 -22 -14 -29 -25 -8 -12 22 -7 113 8
140 5 10 12 36 15 58 2 21 12 68 21 104 9 36 26 106 37 155 11 50 24 99 28
110 5 11 11 34 14 50 8 52 31 133 39 141 4 4 7 18 7 31 0 21 16 99 28 133 3 8
6 22 8 30 3 16 20 76 35 127 6 18 12 40 14 50 3 15 21 77 25 86 0 1 3 11 6 23
3 11 21 29 40 39 30 16 37 17 44 5 7 -12 12 -12 22 -2 6 6 22 12 35 12 16 0
23 6 23 19 0 11 9 21 23 25 l22 6 -22 15 c-13 9 -23 23 -23 31 0 19 -16 18
-24 -2 -5 -12 -16 -15 -41 -12 -33 4 -35 2 -47 -39 -7 -24 -15 -43 -18 -43
-15 0 20 217 38 230 4 3 8 21 10 40 1 19 9 38 17 43 9 4 15 22 15 41 0 18 9
66 19 107 10 41 19 81 20 89 2 39 22 137 55 265 19 77 46 190 61 250 14 61 32
135 40 165 8 30 28 116 45 190 17 74 46 194 65 265 18 72 50 198 70 280 21 83
42 158 47 169 8 14 5 23 -10 38 -19 20 -19 20 0 92 l20 73 -25 114 c-28 129
-144 630 -182 789 -14 58 -32 138 -41 178 -15 73 -23 101 -47 155 l-12 27
-848 0 -847 0 -133 -35 c-307 -80 -669 -166 -682 -161 -7 2 -15 18 -18 36 -4
17 -21 60 -39 96 l-32 65 -693 -2 c-381 -1 -693 -4 -693 -8z m10270 -358 c0
-49 -18 -113 -32 -113 -4 0 -8 5 -8 10 0 14 -19 12 -35 -3 -18 -19 -31 -157
-15 -167 9 -6 7 -11 -9 -19 -16 -9 -21 -9 -21 1 0 6 -17 -5 -38 -25 -31 -31
-45 -37 -80 -37 -23 0 -42 5 -42 10 0 6 -12 22 -27 36 -19 17 -24 27 -15 31 8
3 12 30 12 84 l0 79 50 0 c31 0 50 4 50 12 0 6 3 8 7 4 4 -3 24 10 45 31 26
25 38 46 38 65 0 26 3 28 40 28 22 0 40 5 40 10 0 6 9 10 20 10 17 0 20 -7 20
-47z m-722 -88 c11 -14 28 -24 38 -23 36 3 55 -2 49 -12 -6 -10 0 -12 42 -14
12 -1 33 -12 47 -25 l26 -25 40 39 40 39 40 -39 c34 -34 40 -45 40 -82 0 -24
-5 -43 -11 -43 -6 0 -9 -18 -8 -47 3 -45 2 -48 -26 -56 -17 -5 -35 -20 -42
-33 -10 -22 -9 -24 5 -20 21 7 32 -1 60 -41 27 -39 27 -43 0 -43 -21 0 -21 -2
-15 -116 6 -107 5 -120 -17 -174 -23 -56 -65 -108 -114 -140 -21 -14 -23 -23
-23 -100 0 -85 -12 -163 -32 -210 -20 -48 -14 -105 8 -70 3 6 17 10 31 10 14
0 24 6 24 14 0 8 12 19 28 25 37 15 90 46 113 67 16 14 17 20 6 33 -7 9 -18
29 -25 44 -6 15 -19 30 -27 33 -17 7 -21 64 -5 64 6 0 18 8 28 18 50 50 184
68 180 24 -4 -49 3 -82 17 -82 8 0 15 -5 15 -11 0 -5 -4 -8 -10 -4 -9 5 -40
-44 -40 -64 0 -5 8 -17 17 -27 17 -16 18 -16 24 7 6 20 7 19 8 -12 1 -35 -24
-64 -71 -82 -10 -3 -18 -16 -18 -27 0 -13 -7 -20 -20 -20 -11 0 -20 -5 -20
-11 0 -5 -17 -17 -37 -26 -49 -20 -73 -41 -73 -65 0 -24 -73 -96 -112 -111
-12 -4 -18 -17 -18 -41 0 -36 -31 -66 -69 -66 -11 0 -21 -5 -23 -10 -2 -6 -30
-15 -63 -20 -33 -5 -75 -12 -92 -16 -29 -6 -33 -4 -33 15 0 13 4 19 10 16 6
-4 18 -4 27 -1 12 5 13 9 3 21 -14 17 -66 20 -75 5 -3 -5 -13 -10 -21 -10 -14
0 -104 -81 -104 -94 0 -4 4 -5 9 -2 10 7 21 -17 21 -45 0 -10 -7 -19 -15 -19
-8 0 -15 -8 -15 -17 0 -9 -7 -25 -16 -34 -9 -10 -18 -29 -19 -43 -2 -19 1 -23
16 -19 10 3 19 12 19 19 0 8 7 14 16 14 8 0 22 7 30 15 8 8 21 12 29 9 20 -8
8 -60 -21 -92 -13 -13 -24 -28 -24 -33 0 -4 -14 -10 -31 -14 -23 -5 -36 -3
-48 9 -14 15 -14 18 -1 26 8 5 11 12 7 16 -4 4 -13 2 -19 -4 -7 -7 -20 -12
-30 -12 -24 0 -57 -19 -91 -52 -15 -16 -29 -28 -31 -28 -2 0 -11 18 -20 40 -9
24 -22 40 -32 40 -13 0 -15 6 -9 28 4 15 9 49 12 76 4 39 12 55 44 86 21 21
39 44 39 53 0 8 13 20 29 25 28 10 29 13 24 54 -3 24 -7 45 -9 47 -8 9 -97
-35 -101 -50 -3 -9 -26 -26 -51 -38 -26 -12 -55 -26 -64 -32 -10 -5 -24 -9
-33 -9 -15 0 -87 -31 -95 -41 -3 -4 -16 -10 -28 -14 -22 -6 -23 -11 -17 -51 5
-36 3 -45 -11 -51 -10 -4 -20 0 -26 10 -5 10 -22 24 -37 32 -40 20 -266 182
-386 277 -121 94 -110 86 -165 122 -25 16 -56 39 -70 52 -14 13 -36 32 -50 43
-20 17 -22 20 -7 21 13 0 17 9 17 36 0 55 36 84 104 84 61 0 72 -7 50 -31 -15
-17 -14 -21 25 -60 22 -23 41 -47 41 -53 0 -6 -12 -24 -26 -40 -25 -27 -26
-28 -5 -21 12 4 28 2 35 -4 10 -8 16 -5 26 14 7 13 19 26 26 29 17 6 74 -13
74 -25 0 -18 27 -8 54 20 16 17 26 36 23 45 -4 9 8 24 34 41 43 31 49 45 19
45 -11 0 -20 -4 -20 -9 0 -10 -86 -31 -128 -31 -39 0 -59 34 -41 69 8 14 22
33 31 42 10 9 18 25 18 35 0 19 32 54 49 54 4 0 16 18 27 40 10 22 23 40 27
40 5 0 34 18 64 40 39 28 67 40 90 40 36 0 57 -25 33 -40 -9 -6 -7 -11 8 -19
29 -15 52 -14 58 4 4 8 12 15 20 15 8 0 19 9 26 20 7 11 21 20 31 20 19 0 87
49 87 63 0 8 86 97 94 97 2 0 18 13 34 30 25 25 31 40 35 89 3 32 12 69 20 82
9 15 13 37 10 57 -5 31 -8 33 -32 26 -14 -5 -45 -8 -68 -7 -36 0 -49 7 -87 46
-33 33 -51 44 -66 40 -16 -4 -20 0 -20 18 -1 23 -1 23 -15 5 -15 -19 -107 -66
-131 -66 -10 0 -14 12 -14 40 0 32 4 40 19 40 10 0 31 12 47 27 23 21 40 27
89 29 77 4 85 6 85 14 0 6 54 34 70 35 3 1 23 5 45 9 22 5 48 10 57 11 10 1
26 9 36 18 10 9 24 17 30 17 7 0 21 9 32 20 11 11 27 20 35 20 8 0 15 4 15 9
0 6 15 7 34 4 22 -3 46 1 67 11 17 9 38 16 46 16 7 0 13 5 13 10 0 6 18 10 40
10 22 0 40 4 40 9 0 6 19 12 43 14 23 2 45 4 49 5 4 1 15 -9 26 -23z m-9736
-569 c178 -59 209 -78 152 -92 -18 -5 -56 4 -118 26 -50 18 -120 40 -155 49
-65 17 -87 35 -54 44 41 11 77 5 175 -27z m8387 8 c12 -11 12 -17 -3 -39 -21
-32 -53 -65 -63 -65 -12 -1 -63 -85 -63 -104 0 -9 -4 -16 -10 -16 -5 0 -17
-11 -26 -25 -16 -25 -16 -27 9 -53 33 -35 42 -122 14 -122 -8 0 -19 -18 -26
-39 -11 -38 -27 -55 -99 -110 -17 -13 -29 -28 -26 -32 6 -10 -67 22 -76 32 -5
6 -191 126 -302 194 -41 26 -44 30 -30 42 10 7 31 13 49 13 31 0 133 35 143
48 8 11 117 62 133 62 8 0 27 11 43 25 16 14 32 25 37 25 4 0 7 7 7 15 0 8 7
15 15 15 9 0 18 7 21 15 4 8 13 15 20 15 8 0 18 8 21 17 12 31 57 63 83 59 14
-1 19 -1 12 1 -9 3 -2 13 20 28 35 25 70 24 97 -1z m-8584 -78 c72 -24 142
-49 158 -56 83 -39 -41 -40 -160 -2 -49 16 -116 37 -150 47 -35 10 -63 21 -63
25 0 7 52 27 75 29 6 1 69 -19 140 -43z m-245 -62 c61 -19 110 -37 110 -39 0
-2 -24 -9 -54 -15 -56 -11 -52 -12 -255 47 -29 8 22 34 82 42 4 1 57 -15 117
-35z m825 -32 c71 -37 131 -72 133 -78 1 -7 -8 -14 -21 -18 -18 -4 -63 13
-168 66 -79 39 -146 73 -149 75 -9 8 25 23 50 22 14 0 83 -30 155 -67z m-133
-294 c107 -66 147 -93 148 -99 0 -4 -13 -12 -30 -19 -27 -11 -34 -9 -82 22
-29 19 -74 47 -100 62 -27 15 -48 31 -48 36 0 4 12 13 28 18 15 6 28 11 29 11
1 1 26 -14 55 -31z m-612 -83 l85 -44 -48 -20 -47 -20 -90 47 c-49 26 -90 49
-90 52 0 9 84 38 95 33 6 -2 49 -23 95 -48z m476 -49 l93 -62 -40 -18 c-31
-14 -43 -15 -54 -6 -8 7 -13 15 -11 19 3 4 0 13 -6 21 -8 12 -9 12 -4 -2 3
-10 3 -18 1 -18 -8 0 -75 40 -127 75 l-51 34 34 14 c19 9 42 13 52 10 11 -3
61 -33 113 -67z m-304 -49 c89 -53 177 -113 178 -118 0 -4 -18 -14 -40 -23
-44 -18 -52 -15 -120 35 -19 14 -61 41 -94 59 l-59 33 34 18 c44 24 57 23 101
-4z m-135 -176 c40 -25 72 -49 73 -52 0 -3 -19 -16 -43 -29 l-43 -23 -89 59
c-50 33 -108 68 -130 78 l-40 18 55 22 55 23 45 -25 c25 -14 77 -46 117 -71z
m5402 -53 c2 63 18 22 25 -65 3 -48 8 -101 11 -118 2 -16 6 -51 7 -77 1 -27 5
-48 9 -48 3 0 4 65 1 145 -2 79 -1 153 3 162 6 17 7 17 17 -1 7 -13 7 -20 -2
-26 -8 -5 -7 -9 4 -13 10 -4 16 -1 16 8 0 9 6 12 15 9 10 -4 15 -20 15 -50 0
-26 5 -44 11 -44 8 0 8 -5 -1 -15 -9 -10 -9 -15 -1 -15 7 0 11 -22 11 -59 0
-35 5 -63 12 -67 7 -5 9 -2 5 9 -3 9 -2 30 3 46 5 17 5 31 1 31 -4 0 -6 19 -5
43 1 23 2 54 3 69 1 23 5 27 30 26 23 -1 31 -7 36 -26 3 -13 4 -27 0 -30 -3
-3 -5 3 -5 13 0 15 -2 17 -12 6 -11 -10 -9 -15 6 -27 22 -16 29 -55 12 -66 -7
-5 -4 -8 7 -8 11 0 17 -8 17 -25 0 -31 22 -105 32 -105 3 0 4 22 1 48 -5 53
11 77 44 69 15 -3 14 -6 -7 -15 -24 -10 -24 -11 10 -12 31 -1 33 -2 13 -10
-35 -14 -28 -30 10 -24 24 4 28 3 17 -5 -8 -6 -10 -11 -5 -11 15 0 35 -70 21
-70 -12 0 14 -20 27 -20 4 0 5 19 2 43 -3 23 -7 51 -8 62 -2 15 6 21 36 26 44
7 51 -9 7 -17 -39 -8 -29 -24 13 -20 17 2 24 1 15 -1 -10 -2 -18 -8 -18 -13 0
-5 -8 -11 -17 -14 -10 -2 -1 -2 20 1 36 5 50 -7 25 -23 -7 -5 -3 -11 13 -17
l24 -9 -22 -9 c-25 -9 -31 -21 -10 -18 30 4 38 -2 32 -21 -3 -11 -2 -20 3 -20
13 0 23 27 16 45 -4 10 0 15 12 16 17 1 17 2 2 6 -30 8 -20 20 26 36 46 16 58
14 50 -8 -3 -7 0 -16 6 -20 16 -10 34 10 24 26 -9 15 -12 27 -19 87 -5 39 -3
42 19 42 45 0 39 20 -6 21 l-43 1 39 9 c32 8 41 6 51 -8 16 -21 10 -33 -15
-33 -10 0 -22 -5 -26 -12 -5 -8 2 -9 24 -5 17 4 34 2 37 -3 4 -6 -7 -13 -24
-16 -17 -4 -31 -11 -31 -16 0 -10 17 -8 53 7 12 5 17 2 17 -11 0 -11 7 -31 14
-46 16 -30 12 -35 -32 -48 -24 -7 -22 -8 16 -9 56 -1 47 -14 -23 -31 -30 -7
-55 -17 -55 -22 0 -11 28 -10 35 2 8 12 85 13 85 1 0 -9 -58 -24 -94 -25 -22
-1 -32 -21 -17 -31 6 -3 11 -15 11 -26 0 -10 5 -19 10 -19 6 0 10 3 10 8 0 9
100 33 111 26 4 -2 6 -11 2 -19 -3 -8 0 -15 6 -15 6 0 11 -11 11 -25 0 -16 6
-25 15 -25 8 0 15 5 15 10 0 6 12 10 26 10 14 0 33 4 43 9 10 6 23 6 32 0 23
-15 -17 -39 -65 -39 -23 0 -48 -5 -56 -10 -13 -9 -13 -12 4 -25 20 -15 14 -35
-12 -35 -9 0 -24 -5 -32 -11 -11 -7 -5 -8 22 -3 31 5 39 3 44 -12 3 -11 10
-27 15 -36 5 -10 9 -25 9 -33 0 -8 4 -15 9 -15 18 0 22 19 9 39 -7 11 -10 22
-8 25 3 2 31 7 63 11 54 7 57 6 57 -14 0 -11 5 -21 10 -21 6 0 10 -7 10 -15 0
-9 -9 -15 -22 -15 -19 0 -20 -2 -8 -10 11 -7 6 -10 -22 -10 -20 0 -39 -4 -42
-8 -3 -5 22 -7 55 -5 47 3 60 1 56 -9 -2 -7 -10 -12 -16 -10 -6 1 -25 -5 -41
-13 -44 -23 -60 -19 -66 15 -4 17 -13 30 -20 30 -16 0 -19 -26 -4 -35 14 -9
12 -42 -2 -48 -7 -3 -3 -6 10 -6 19 -1 22 -5 17 -31 -5 -30 10 -41 31 -21 5 5
18 11 29 14 19 4 19 5 -1 6 -12 0 -27 8 -35 17 -17 20 2 34 48 34 17 0 33 5
35 12 2 6 10 8 16 4 20 -12 14 -26 -12 -26 -13 0 -29 -6 -35 -14 -16 -19 11
-28 55 -20 19 3 34 2 34 -3 0 -10 -65 -33 -94 -33 -10 0 -14 -5 -10 -11 4 -8
0 -9 -15 -4 -12 4 -29 0 -42 -8 l-21 -15 21 -7 c25 -8 28 -35 4 -36 -12 -1 -9
-4 7 -8 21 -7 17 -10 -33 -20 -32 -7 -56 -15 -54 -18 5 -5 106 13 137 25 21 7
39 11 89 19 68 10 42 -12 -31 -27 -67 -13 -129 -39 -95 -40 23 0 54 -29 41
-38 -15 -11 -13 -42 2 -42 8 0 14 -6 14 -14 0 -9 -17 -16 -47 -21 -27 -4 -43
-9 -37 -12 6 -2 30 1 53 6 30 6 41 6 38 -2 -2 -6 -21 -15 -43 -20 -21 -4 -43
-12 -49 -18 -6 -6 0 -6 20 0 78 24 85 24 85 -8 0 -16 5 -33 11 -36 21 -13 1
-29 -52 -41 -30 -7 -62 -13 -73 -14 -37 0 4 29 50 36 63 9 63 22 0 20 -30 0
-49 -4 -42 -8 7 -5 5 -8 -6 -8 -12 0 -21 14 -29 43 -15 52 -16 52 -31 40 -7
-6 -22 -13 -33 -17 -12 -3 -9 -4 8 -2 18 2 27 -1 27 -10 0 -8 5 -14 12 -14 9
0 9 -3 1 -11 -6 -6 -9 -17 -6 -25 4 -12 -20 -22 -102 -39 -53 -12 -58 -14 -47
-28 5 -6 9 -19 9 -27 0 -8 4 -27 7 -41 7 -23 4 -27 -31 -37 -67 -19 -113 -25
-113 -14 0 6 8 16 18 21 16 10 16 10 0 11 -10 0 -18 6 -18 14 0 8 -5 18 -11
21 -11 8 -6 -95 7 -129 4 -11 2 -21 -7 -27 -11 -7 -10 -9 4 -9 41 0 7 -24 -58
-41 -39 -10 -71 -19 -72 -19 -10 -1 -1 29 10 33 6 3 0 6 -16 6 -24 1 -27 -2
-21 -23 5 -20 1 -25 -18 -29 -22 -4 -21 -4 3 -6 24 -1 26 -5 24 -33 -2 -18 2
-39 8 -46 13 -17 5 -23 -56 -44 -51 -17 -25 -19 37 -3 22 6 28 5 24 -6 -2 -7
-27 -18 -54 -25 -34 -8 -41 -12 -22 -13 15 0 38 3 51 8 19 8 27 6 31 -4 3 -8
-2 -19 -12 -23 -26 -13 -133 -35 -139 -28 -4 3 -11 2 -17 -3 -11 -9 -124 -41
-145 -41 -6 0 -11 9 -11 20 0 11 6 20 13 20 9 0 9 2 -1 9 -7 4 -12 14 -10 22
2 8 -4 14 -12 14 -17 0 -21 -42 -6 -62 5 -8 3 -19 -5 -30 -11 -13 -11 -17 -1
-20 18 -7 4 -23 -21 -24 -20 -1 -20 -2 3 -8 14 -4 25 -13 25 -20 0 -14 -83
-46 -93 -36 -6 5 -12 178 -15 437 -1 60 -5 108 -8 108 -3 0 -6 12 -6 28 0 101
-8 172 -19 168 -14 -5 -25 50 -21 101 3 31 2 31 -52 38 -65 8 -91 20 -91 40 0
9 -10 15 -24 15 -14 0 -28 5 -32 11 -8 13 46 70 59 62 6 -3 7 -1 3 5 -3 5 -1
12 5 14 8 3 12 38 11 105 0 113 9 136 51 136 15 0 27 1 27 3 0 10 -27 50 -42
65 -25 23 -24 52 2 44 14 -5 20 -2 20 9 0 21 27 20 39 -1 23 -41 28 13 18 177
-12 177 -14 200 -25 213 -24 28 -46 216 -29 234 9 8 27 -96 27 -152 0 -81 17
-75 22 7 3 40 11 74 17 76 6 2 12 27 12 55 2 49 2 50 9 17 l7 -35 2 33z m-314
-465 c-4 -109 -8 -201 -10 -204 -4 -5 -11 -115 -20 -309 -2 -47 -9 -137 -16
-200 -6 -63 -11 -123 -11 -134 1 -10 -11 -35 -26 -55 -22 -30 -23 -33 -4 -17
20 18 28 15 22 -9 -3 -13 -7 -67 -10 -125 -3 -65 -10 -101 -20 -95 -5 3 -13
-3 -19 -12 -5 -10 -13 -14 -17 -10 -5 5 -4 11 2 15 14 9 34 47 34 63 0 7 -13
-2 -30 -21 -30 -35 -42 -31 -15 4 17 22 20 50 5 41 -9 -6 -8 2 6 43 4 9 6 42
5 73 -1 30 4 73 12 95 11 33 11 42 0 52 -8 8 -13 35 -13 67 0 44 -3 55 -16 55
-15 0 -16 8 -10 63 4 34 7 70 7 80 0 9 7 17 14 17 11 0 14 14 13 57 -1 36 3
58 10 61 7 2 12 12 12 23 0 10 4 19 9 19 13 0 20 122 8 141 -13 21 -3 59 23
87 17 18 21 35 21 94 0 40 5 75 10 79 6 3 13 40 16 82 11 142 15 79 8 -120z
m4879 45 c3 -15 0 -27 -9 -34 -17 -13 -21 -54 -5 -54 6 0 10 -7 10 -15 0 -8
-4 -15 -10 -15 -5 0 -10 -11 -10 -25 0 -14 -4 -25 -9 -25 -5 0 -17 -18 -27
-40 -10 -22 -24 -40 -31 -40 -7 0 -13 -9 -13 -20 0 -26 56 -36 103 -19 25 9
42 9 64 2 22 -8 36 -7 57 4 18 10 40 13 62 8 27 -5 34 -3 34 10 0 11 10 15 38
15 59 -1 70 -24 74 -168 4 -108 2 -124 -14 -142 -10 -10 -18 -24 -18 -30 0
-21 -36 -47 -56 -39 -21 7 -157 105 -335 240 -63 47 -134 99 -159 115 -80 51
-180 133 -180 146 0 5 13 2 30 -7 26 -13 29 -14 24 0 -4 10 0 15 14 15 11 0
30 11 43 25 25 25 55 33 61 15 2 -6 25 -11 51 -12 37 -2 51 2 58 15 6 9 19 17
29 17 11 0 27 11 36 25 9 14 21 25 26 25 5 0 16 7 24 15 21 21 31 19 38 -7z
m819 -429 c10 -14 28 -21 58 -23 25 -2 47 -10 54 -20 7 -9 21 -16 32 -16 22 0
33 -24 33 -74 0 -50 -41 -118 -112 -187 -37 -36 -68 -70 -68 -74 0 -12 -88
-95 -100 -95 -5 0 -13 -8 -19 -17 -8 -16 -22 -9 -118 56 -112 77 -252 182
-252 191 -1 6 49 30 63 30 6 0 42 20 79 44 45 28 75 55 88 80 31 58 55 79 117
103 75 29 126 30 145 2z m-2228 -429 c6 -20 -22 -53 -123 -142 -46 -42 -82
-50 -82 -19 0 24 158 181 182 181 9 0 19 -9 23 -20z m86 -96 c12 -15 3 -27
-76 -100 -50 -46 -94 -84 -99 -84 -9 0 -56 -38 -131 -104 -44 -39 -50 -42 -61
-24 -10 15 124 141 142 134 8 -3 11 0 7 9 -3 9 22 40 69 84 40 38 80 76 88 85
19 21 44 20 61 0z m45 -46 c9 -14 -156 -171 -198 -189 -19 -8 -28 -19 -28 -33
0 -13 -12 -33 -27 -46 -16 -12 -42 -36 -60 -53 -27 -25 -35 -28 -48 -17 -8 7
-15 20 -15 30 0 20 102 120 123 120 8 0 62 45 118 100 103 99 121 111 135 88z
m34 -45 c11 -10 20 -22 20 -29 0 -13 -125 -127 -181 -165 -21 -15 -71 -56
-111 -93 -39 -36 -75 -66 -79 -66 -4 0 -10 7 -13 15 -4 11 16 36 61 78 36 34
71 69 77 77 11 15 199 200 203 200 2 0 12 -8 23 -17z m56 -64 c8 -14 -150
-165 -193 -185 -27 -11 -33 -20 -33 -44 0 -17 -3 -30 -7 -30 -5 0 -30 -22 -58
-50 -27 -27 -54 -49 -59 -50 -13 0 -35 32 -36 52 0 9 6 21 14 25 8 4 35 27 60
51 24 23 54 42 65 42 12 0 21 4 21 9 0 20 183 191 205 191 7 0 17 -5 21 -11z
m47 -55 c11 -14 17 -26 15 -28 -8 -5 -173 -152 -178 -158 -3 -4 -18 -11 -33
-17 -15 -6 -27 -17 -27 -25 0 -8 -4 -16 -9 -18 -5 -1 -35 -27 -65 -56 -35 -34
-62 -52 -71 -48 -27 10 -16 33 47 91 34 32 72 73 85 92 13 19 43 52 66 73 23
21 62 56 87 79 25 22 50 40 55 40 6 0 18 -11 28 -25z m-2808 -23 c3 -6 -2 -14
-11 -19 -15 -8 -15 -10 0 -15 26 -10 18 -27 -11 -27 -16 0 -34 -4 -42 -9 -8
-5 4 -7 33 -4 38 5 46 3 46 -11 0 -10 -9 -16 -27 -17 -25 -1 -24 -2 7 -9 40
-8 36 -10 -58 -41 -36 -13 -44 -18 -22 -14 107 18 123 18 118 5 -4 -14 -107
-46 -142 -45 -13 0 -19 8 -21 32 -2 29 0 32 41 42 54 14 58 24 7 15 -21 -3
-42 -7 -48 -8 -5 0 -10 8 -11 19 0 11 -4 34 -8 52 -7 31 -6 32 36 43 24 6 48
13 53 15 20 7 54 5 60 -4z m2852 -38 c7 -19 -113 -136 -184 -179 -24 -14 -43
-32 -43 -40 0 -21 38 -17 45 5 3 11 25 35 48 54 23 19 66 58 95 87 57 55 74
58 94 14 11 -24 9 -28 -28 -63 -70 -66 -159 -138 -177 -144 -9 -4 -21 -17 -26
-29 -10 -25 -123 -128 -140 -128 -17 0 -30 32 -17 44 87 79 123 116 116 116
-10 0 -110 -85 -122 -103 -8 -12 -34 6 -49 34 -8 15 -1 26 37 61 75 69 86 78
100 78 6 0 20 13 31 28 24 37 184 182 201 182 7 0 16 -8 19 -17z m105 -118 c6
-13 19 -27 28 -30 9 -3 23 -17 30 -31 13 -24 12 -27 -23 -60 -20 -20 -37 -38
-37 -41 0 -7 40 26 55 46 16 19 48 10 60 -17 5 -12 13 -22 17 -22 4 0 18 -12
32 -27 23 -25 24 -27 8 -49 -9 -13 -24 -26 -34 -29 -9 -3 -19 -12 -22 -20 -4
-10 4 -8 24 7 17 12 30 25 30 30 0 13 33 9 54 -7 19 -15 19 -15 -5 -42 -22
-25 -22 -26 -1 -9 22 19 22 19 50 -5 34 -31 42 -41 36 -51 -3 -4 1 -8 8 -8 18
-1 51 -48 42 -62 -4 -7 -3 -8 4 -4 13 8 71 -51 72 -71 0 -7 6 -13 13 -13 15 0
49 -54 40 -64 -3 -3 3 -6 15 -6 12 0 22 -4 22 -9 0 -5 23 -34 50 -64 28 -30
50 -62 50 -71 0 -9 6 -16 14 -16 8 0 26 -15 41 -32 14 -18 42 -50 61 -70 19
-21 34 -42 34 -48 0 -5 20 -28 45 -51 25 -23 45 -47 45 -53 0 -6 16 -24 35
-39 19 -15 35 -33 35 -38 0 -6 8 -18 19 -27 10 -10 74 -82 142 -160 l123 -144
-33 -29 c-39 -34 -33 -39 9 -7 l30 22 30 -29 c16 -16 30 -37 30 -47 0 -11 4
-17 9 -14 9 6 67 -53 96 -98 10 -14 35 -43 56 -65 21 -21 39 -45 39 -52 0 -8
-50 -52 -110 -98 -61 -46 -114 -89 -117 -95 -5 -8 -3 -8 8 0 89 67 188 142
203 157 29 25 38 22 87 -35 24 -29 68 -79 97 -112 28 -34 52 -64 52 -68 0 -3
-12 -16 -27 -27 -16 -12 -32 -24 -38 -28 -5 -5 -55 -42 -110 -83 -55 -41 -102
-77 -105 -81 -6 -7 -46 -29 -53 -29 -6 0 -114 131 -159 191 l-27 36 29 31 c31
35 28 41 -8 16 -29 -20 -61 -12 -86 23 l-20 27 70 64 c60 57 63 60 19 28 -85
-62 -100 -68 -118 -48 -8 9 -29 32 -46 50 -17 19 -31 37 -31 42 0 5 26 32 58
61 l57 52 -59 -42 c-33 -22 -63 -41 -68 -41 -11 0 -57 51 -58 64 0 5 11 19 26
32 29 28 25 30 -16 9 -27 -14 -29 -13 -64 22 -20 21 -36 43 -36 50 0 7 -4 13
-10 13 -5 0 -1 9 11 21 23 23 18 39 -6 19 -12 -10 -20 -7 -44 19 -16 17 -25
34 -20 37 5 3 14 14 20 25 10 20 9 20 -19 5 -16 -8 -32 -13 -35 -9 -4 3 -14
-7 -23 -23 -9 -16 -34 -42 -56 -59 -21 -16 -58 -47 -81 -67 -23 -21 -47 -38
-53 -38 -13 0 -84 99 -84 118 0 6 -4 12 -9 12 -5 0 -19 14 -32 31 -16 23 -19
33 -10 42 6 6 11 16 11 21 0 6 -5 5 -12 -2 -7 -7 -15 -12 -19 -12 -11 0 -69
89 -68 103 0 7 21 29 45 50 25 20 41 37 36 37 -4 0 -27 -16 -49 -35 -23 -19
-45 -35 -50 -35 -5 0 -17 17 -28 37 -11 20 -32 50 -46 66 -43 47 -56 76 -39
88 12 8 10 9 -6 4 -16 -4 -26 1 -38 19 -9 14 -16 32 -16 41 0 9 -4 14 -9 11
-10 -7 -61 67 -61 88 0 7 10 21 23 29 36 26 103 87 93 87 -4 0 -33 -23 -64
-50 -62 -55 -82 -59 -96 -18 -8 23 -5 30 30 59 21 19 54 49 74 68 l35 33 -35
-26 c-87 -67 -105 -81 -108 -88 -8 -17 -28 -6 -49 27 -13 19 -23 39 -23 44 0
5 18 24 40 42 22 18 37 35 35 37 -2 3 -23 -12 -46 -33 l-42 -38 -18 24 c-10
13 -19 27 -19 30 0 8 127 122 141 127 5 2 9 8 9 13 0 5 -35 -20 -77 -56 -43
-36 -82 -64 -88 -62 -5 2 -19 20 -30 40 l-20 37 30 26 c17 14 48 41 69 60 22
19 37 36 35 39 -5 4 -30 -16 -102 -84 l-38 -36 -20 24 -20 24 28 30 c27 29 15
29 -18 0 -15 -13 -20 -10 -45 23 l-28 36 24 20 c30 24 134 125 210 204 37 39
43 47 17 25 -21 -17 -56 -43 -78 -56 -21 -14 -39 -33 -39 -43 0 -10 -10 -26
-22 -36 -13 -11 -42 -36 -65 -58 -49 -44 -58 -46 -74 -16 -9 18 -8 24 9 37 57
45 122 106 122 114 0 9 -37 -19 -103 -80 -42 -38 -61 -38 -79 3 -12 26 -10 29
52 83 35 31 98 90 139 131 87 87 171 160 183 160 5 0 14 -11 20 -25z m-3279
-122 c4 -3 2 -12 -4 -20 -9 -9 -8 -13 0 -13 19 0 13 -40 -6 -41 -17 -1 -17 -2
0 -6 48 -13 -9 -40 -103 -49 -40 -4 -43 -3 -27 10 10 7 39 17 65 21 26 4 42 9
36 12 -6 2 -31 -1 -55 -6 -52 -12 -76 2 -45 25 18 13 18 14 2 14 -37 0 -7 25
43 37 29 6 55 14 58 17 8 8 28 8 36 -1z m-163 -131 c0 -4 -20 -16 -45 -27 -51
-20 -55 -31 -6 -14 37 13 68 5 54 -14 -12 -14 -11 -57 0 -75 11 -16 -9 -42
-32 -42 -9 0 -23 -5 -31 -10 -11 -7 -2 -8 28 -4 26 4 42 3 42 -4 0 -6 -19 -17
-42 -26 l-43 -16 43 6 c37 5 42 3 42 -14 0 -15 -11 -22 -45 -31 -25 -6 -45
-16 -45 -21 0 -6 9 -6 26 0 32 12 64 13 64 1 0 -8 -81 -41 -100 -41 -4 0 -7
43 -7 95 l0 95 38 6 c22 4 39 10 39 15 0 4 -15 3 -32 -2 -45 -13 -48 -12 -48
14 1 12 0 37 -2 56 -2 31 1 36 32 47 41 15 70 17 70 6z m18 -449 c-3 -24 -9
-29 -48 -37 -26 -5 -37 -11 -27 -14 10 -2 31 1 47 7 28 9 30 8 31 -17 0 -15 2
-37 5 -49 3 -18 -3 -24 -34 -33 -20 -5 -43 -10 -49 -10 -7 0 -13 -5 -13 -11 0
-7 9 -9 23 -5 67 19 79 19 76 1 -3 -11 -15 -20 -32 -22 -15 -2 -37 -8 -50 -13
-16 -7 -8 -8 31 -4 50 6 52 5 52 -18 0 -25 1 -25 -101 -54 -15 -4 -17 7 -17
85 l0 90 44 7 c24 3 47 11 50 16 4 7 -6 7 -27 2 -64 -14 -71 -12 -74 26 -2 20
-1 41 3 46 6 9 65 27 105 33 5 0 7 -11 5 -26z m22 -411 c0 -15 -13 -22 -57
-32 -32 -8 -50 -15 -41 -17 9 -3 34 0 55 6 22 6 41 7 46 2 13 -13 0 -59 -15
-58 -20 2 -101 -24 -95 -29 3 -3 22 -1 44 5 55 16 75 14 71 -6 -4 -20 -125
-58 -130 -40 -2 7 -3 46 -3 87 l0 75 50 11 c70 17 75 16 75 -4z m3717 -285
c20 -29 22 -42 18 -98 -9 -100 -19 -160 -29 -162 -5 -1 -18 16 -29 37 -19 36
-20 45 -9 121 7 44 12 93 12 108 0 36 10 34 37 -6z m419 -94 c-4 -10 -4 -14 0
-11 4 4 15 3 25 -3 15 -8 17 -14 8 -36 -5 -15 -19 -33 -29 -40 -11 -8 -20 -19
-20 -25 0 -6 10 -2 23 9 46 42 61 39 101 -21 36 -54 33 -75 -17 -113 -23 -17
-66 -50 -95 -72 -29 -23 -56 -41 -60 -41 -8 0 -82 104 -82 116 0 4 18 23 40
42 23 19 39 37 36 40 -3 2 -21 -9 -41 -27 -20 -17 -41 -31 -48 -31 -7 0 -23
16 -37 36 l-24 36 25 22 c106 88 151 122 171 128 13 3 25 6 27 7 2 1 0 -7 -3
-16z m-3145 -56 c5 -19 4 -30 -4 -32 -37 -13 -201 -44 -208 -39 -5 3 -9 18 -9
33 0 28 3 29 93 49 50 11 98 20 106 19 8 -1 18 -15 22 -30z m2865 -51 c3 -14
12 -27 20 -30 17 -6 19 -42 3 -52 -8 -4 -8 -8 -1 -13 8 -5 6 -35 -5 -99 -13
-73 -19 -89 -30 -81 -7 6 -11 14 -8 18 2 4 -5 15 -16 24 -20 18 -20 15 -4 161
2 22 8 42 14 45 6 4 7 12 1 21 -14 21 -12 30 5 30 8 0 17 -11 21 -24z m-2578
-71 c-3 -16 -20 -23 -103 -42 -55 -12 -106 -20 -113 -18 -8 3 -12 17 -10 37 3
31 5 32 68 45 36 7 81 17 100 21 40 10 63 -7 58 -43z m-778 31 c0 -8 2 -21 6
-29 5 -15 -4 -18 -144 -50 -68 -16 -69 -15 -74 33 -3 22 2 26 67 41 90 22 145
24 145 5z m-470 -36 c0 -14 -11 -22 -42 -30 -65 -16 -93 -32 -43 -24 84 13 90
12 93 -22 3 -30 1 -32 -45 -43 -65 -16 -92 -35 -38 -27 22 3 50 9 63 12 19 5
22 2 22 -19 0 -22 -8 -28 -62 -46 -61 -20 -62 -20 -18 -15 25 3 54 6 64 7 16
2 20 -5 20 -32 1 -34 -1 -35 -54 -51 -31 -9 -72 -19 -93 -23 -37 -6 -37 -5
-37 29 0 19 5 34 10 34 6 0 10 -12 10 -27 0 -14 3 -24 6 -21 3 4 6 36 6 72 0
38 5 66 10 66 7 0 7 4 0 13 -6 7 -10 42 -10 78 l0 67 42 10 c70 17 96 15 96
-8z m3665 -126 c-3 -50 -9 -104 -13 -119 l-8 -27 -27 36 -28 36 11 87 c6 49
14 99 17 113 l5 25 25 -30 c23 -29 24 -34 18 -121z m-3435 96 c0 -31 -4 -40
-17 -40 -10 0 -52 -9 -93 -19 -41 -10 -78 -16 -82 -14 -5 2 -8 19 -8 37 0 33
0 33 78 50 42 10 82 19 87 21 29 10 35 3 35 -35z m764 14 c16 -43 9 -50 -81
-68 -158 -32 -143 -33 -143 7 0 35 1 36 58 48 31 6 71 15 87 19 48 13 72 11
79 -6z m3304 -24 c26 -28 18 -82 -16 -103 -15 -8 -40 -28 -57 -44 -38 -36
-101 -83 -112 -83 -9 0 -53 65 -53 79 0 8 31 36 110 98 107 84 101 82 128 53z
m-3553 -41 c4 -17 5 -32 3 -33 -8 -8 -218 -52 -223 -48 -3 3 -5 20 -5 37 l0
32 98 20 c53 11 102 21 109 22 6 0 14 -13 18 -30z m-247 -63 c-3 -30 -5 -31
-88 -49 -135 -28 -134 -28 -138 14 l-3 36 58 12 c165 34 176 33 171 -13z m787
22 c3 -7 6 -24 7 -37 3 -23 -2 -25 -107 -47 -60 -12 -113 -19 -117 -15 -4 4
-10 20 -14 37 l-6 29 99 21 c121 26 133 27 138 12z m3071 -23 c4 -8 13 -15 21
-15 9 0 13 -6 9 -15 -3 -8 0 -18 7 -22 7 -5 19 -21 28 -38 8 -17 22 -29 31
-27 8 1 23 -8 34 -20 l19 -22 -27 17 c-35 22 -35 11 -3 -33 14 -19 25 -39 25
-45 0 -6 -21 -27 -47 -45 -27 -19 -62 -45 -79 -59 -84 -69 -74 -65 -94 -44
-10 10 -47 62 -84 115 -60 88 -79 128 -58 128 4 0 45 31 92 69 86 70 116 84
126 56z m-4108 -47 l3 -36 -83 -16 c-46 -8 -93 -18 -104 -22 -18 -5 -22 -1
-26 25 -2 17 -2 34 1 39 7 9 180 52 196 48 6 -1 11 -19 13 -38z m775 25 c3 -5
7 -21 8 -37 4 -28 3 -29 -91 -52 -128 -31 -137 -31 -142 6 -3 17 -1 33 5 37 7
4 171 45 209 52 4 0 9 -2 11 -6z m2761 -40 c3 -10 13 -29 21 -43 19 -31 10
-166 -12 -191 -11 -13 -11 -18 -2 -21 8 -3 10 -11 6 -22 -6 -15 -10 -16 -22
-6 -8 7 -15 20 -15 30 0 10 -7 21 -16 24 -14 5 -15 17 -9 79 4 39 10 76 13 82
4 5 5 22 3 37 -4 44 20 67 33 31z m-3011 -45 c2 -18 3 -35 1 -37 -8 -8 -218
-50 -226 -45 -4 3 -8 20 -8 38 l0 33 93 21 c130 29 134 28 140 -10z m-255 -59
l3 -35 -58 -12 c-32 -7 -82 -17 -111 -23 -29 -7 -54 -10 -56 -8 -2 2 -6 20 -8
39 l-3 35 95 22 c125 28 134 27 138 -18z m817 -10 c4 -17 4 -33 1 -36 -10 -10
-221 -52 -227 -45 -4 4 -10 21 -13 38 l-7 31 88 20 c48 11 102 21 120 22 27 1
32 -3 38 -30z m-1315 -1 c0 -19 -11 -27 -68 -45 -62 -21 -64 -22 -22 -17 25 3
55 7 68 11 20 5 22 2 22 -39 l0 -44 -60 -13 c-33 -8 -63 -18 -67 -24 -4 -6 0
-8 9 -5 8 4 40 9 71 13 53 7 57 6 57 -13 0 -26 -3 -28 -76 -47 -118 -32 -149
-25 -99 21 27 25 26 48 -1 37 -10 -4 -17 2 -21 16 -3 11 -9 18 -14 15 -5 -3
-9 2 -9 10 0 9 3 15 8 14 4 -1 17 3 30 10 19 11 22 19 16 46 -7 40 1 46 71 62
78 17 85 17 85 -8z m240 -22 c0 -13 3 -31 6 -39 5 -15 -59 -35 -172 -53 -40
-6 -41 -5 -48 27 -3 18 -3 36 1 40 7 7 161 43 201 48 6 0 12 -10 12 -23z
m4887 -42 c32 -36 58 -69 58 -74 0 -4 -61 -53 -135 -108 -74 -56 -140 -106
-147 -112 -7 -5 -24 -15 -38 -22 -22 -10 -28 -9 -39 8 -8 10 -24 30 -36 44
-38 43 -51 67 -44 84 5 14 45 46 254 204 30 23 58 42 62 42 4 0 33 -30 65 -66z
m-4081 11 c3 -20 5 -38 2 -40 -8 -8 -229 -52 -232 -46 -2 3 -6 21 -8 40 l-3
34 105 22 c58 13 110 23 117 24 7 0 15 -15 19 -34z m3564 -140 c0 -12 -185
-160 -213 -171 -10 -3 -30 17 -61 63 -25 38 -46 73 -45 79 0 5 46 44 102 87
l102 78 58 -62 c31 -34 57 -67 57 -74z m-3827 75 l2 -33 -105 -23 c-58 -13
-110 -23 -116 -24 -10 0 -26 69 -18 79 8 9 220 47 227 40 5 -4 10 -21 10 -39z
m3131 -23 c-4 -11 -2 -17 4 -13 5 3 17 -3 26 -12 14 -16 14 -29 6 -93 -6 -41
-12 -89 -14 -107 -6 -46 -14 -51 -37 -23 -25 30 -24 39 4 44 20 4 19 4 -4 6
-15 0 -30 9 -34 18 -6 16 9 126 23 163 3 8 4 26 3 40 -3 21 -1 22 13 11 10 -9
14 -21 10 -34z m-3394 -11 c0 -13 2 -31 6 -39 4 -11 -19 -19 -103 -37 -59 -12
-113 -25 -119 -27 -13 -5 -27 68 -15 80 7 7 175 43 214 46 12 1 17 -6 17 -23z
m3213 -22 c6 -16 16 -33 23 -37 16 -9 19 -37 4 -37 -6 0 -15 11 -20 25 -5 14
-14 25 -20 25 -15 0 -12 -10 15 -46 21 -28 24 -40 19 -81 -3 -26 -8 -55 -11
-63 -3 -8 -5 -27 -4 -42 3 -39 -17 -35 -34 6 -8 19 -19 37 -25 41 -11 7 -14
48 -4 58 3 3 7 28 9 56 1 28 8 57 14 65 7 8 9 25 5 41 -10 38 17 29 29 -11z
m-2368 -10 c3 -20 3 -40 -2 -44 -12 -11 -231 -55 -238 -48 -2 2 -7 23 -11 46
-6 41 -6 42 22 42 16 0 65 9 109 19 112 27 112 27 120 -15z m3876 -12 c21 -22
39 -45 39 -53 0 -8 -25 -32 -56 -54 -30 -22 -60 -45 -67 -51 -7 -6 -31 -22
-53 -37 -22 -14 -47 -32 -55 -39 -25 -25 -93 -68 -108 -68 -25 0 -76 73 -64
94 7 13 311 246 320 246 3 0 22 -17 44 -38z m-4983 -27 l3 -40 -106 -24 c-59
-13 -108 -21 -111 -19 -2 3 -5 22 -7 44 l-2 39 95 22 c52 12 102 21 110 20 10
-2 16 -16 18 -42z m3308 -7 c12 -24 20 -56 19 -73 -2 -16 -4 -40 -4 -52 -1
-16 -7 -23 -20 -23 -18 0 -19 -2 -5 -27 17 -35 18 -83 1 -83 -20 0 -57 81 -50
113 4 18 10 26 19 23 16 -6 19 10 4 19 -11 7 -14 103 -4 129 9 25 17 19 40
-26z m-2475 -18 c4 -19 6 -36 4 -38 -4 -5 -239 -51 -242 -48 -1 1 -5 20 -9 43
l-6 41 53 11 c30 5 74 14 99 20 76 16 93 11 101 -29z m-1081 -24 l0 -43 -58
-17 c-84 -23 -100 -21 -105 12 -4 24 -4 23 -7 -8 l-2 -35 -9 44 c-9 47 -4 65
11 41 8 -13 10 -12 10 2 0 10 10 20 23 23 142 33 137 34 137 -19z m4657 -1
l33 -44 -103 -79 c-56 -43 -107 -82 -114 -85 -12 -7 -73 67 -73 89 0 16 190
163 210 163 8 0 30 -20 47 -44z m-3853 -1 c3 -9 6 -28 6 -43 0 -27 -3 -28 -87
-46 -102 -21 -153 -29 -153 -24 -1 2 -3 21 -6 41 -5 33 -3 38 18 42 13 3 59
14 103 25 100 24 111 25 119 5z m4506 -12 c0 -4 25 -34 55 -67 30 -32 55 -63
55 -69 0 -6 -51 -47 -113 -91 -61 -44 -114 -82 -117 -86 -11 -13 -115 -79
-125 -78 -17 1 -106 129 -103 147 3 18 71 74 219 182 85 62 129 83 129 62z
m-4768 -72 c4 -46 13 -42 -150 -76 -72 -15 -85 -15 -93 -3 -8 12 -13 78 -6 80
88 17 198 37 218 38 24 1 27 -3 31 -39z m-537 -10 c0 -21 -8 -27 -67 -44 -85
-24 -89 -38 -5 -20 34 7 65 13 70 14 4 0 7 -21 7 -47 l0 -48 -73 -18 c-39 -9
-86 -17 -102 -17 -17 0 -36 -5 -43 -12 -9 -9 -12 -3 -12 29 0 23 5 45 12 49 8
5 9 2 5 -9 -4 -12 -1 -17 9 -17 11 0 15 6 11 20 -5 20 8 29 15 10 2 -5 8 1 13
13 8 16 7 29 -2 47 -12 24 -13 25 -13 3 0 -13 -4 -23 -8 -23 -4 0 -8 12 -7 28
0 15 6 27 13 27 7 0 16 5 20 11 6 10 124 33 147 29 6 -1 10 -12 10 -25z m1404
-19 c6 -19 8 -38 4 -41 -8 -7 -212 -50 -237 -50 -14 0 -39 77 -27 84 3 2 55
14 115 25 60 11 111 23 114 26 8 8 18 -6 31 -44z m3335 2 c19 -27 44 -58 55
-69 12 -12 19 -28 16 -35 -3 -8 -40 -39 -83 -69 -42 -30 -79 -57 -82 -60 -7
-8 -58 -40 -64 -40 -6 0 -95 125 -101 142 -4 9 12 27 39 46 25 18 51 38 58 45
24 24 111 87 119 87 4 0 24 -21 43 -47z m-4476 -30 l3 -41 -78 -17 c-43 -9
-93 -21 -112 -26 -19 -4 -37 -7 -39 -4 -11 10 -13 83 -3 90 15 9 192 44 211
42 10 -2 16 -16 18 -44z m856 -27 c11 -48 10 -48 -116 -75 -123 -26 -127 -26
-133 2 -12 55 -10 60 20 69 53 15 200 46 210 44 5 -2 14 -20 19 -40z m2567
-10 c18 -29 26 -55 24 -77 -2 -19 -3 -45 -4 -58 -1 -19 -5 -23 -26 -19 -29 6
-31 1 -9 -23 17 -19 24 -91 9 -95 -10 -3 -53 57 -56 79 -5 41 2 69 16 63 16
-6 21 19 6 29 -6 3 -9 24 -7 48 2 23 4 54 4 70 3 37 13 34 43 -17z m1799 -47
l42 -50 -23 -17 c-47 -35 -221 -160 -277 -199 -26 -18 -49 -33 -52 -33 -4 0
-23 16 -44 35 -47 43 -44 68 11 108 21 15 92 68 158 117 66 48 125 89 131 89
6 1 30 -22 54 -50z m-4647 -3 c7 -28 6 -40 -3 -46 -20 -12 -229 -52 -240 -45
-6 3 -10 24 -10 45 0 33 4 41 23 45 100 24 194 43 207 42 8 -1 18 -19 23 -41z
m-279 -104 c-5 -7 -239 -50 -246 -45 -5 2 -8 24 -8 48 l0 44 53 10 c28 5 84
16 122 23 l70 13 6 -45 c3 -25 5 -47 3 -48z m4297 66 c6 -12 20 -31 30 -42 11
-11 19 -25 19 -30 0 -6 -32 -33 -71 -61 -38 -27 -90 -65 -114 -83 -24 -17 -46
-32 -49 -32 -9 0 -66 88 -66 102 1 17 199 166 222 167 10 1 23 -9 29 -21z
m-3716 -17 c0 -23 -6 -26 -90 -41 -184 -35 -165 -35 -165 -2 0 29 1 30 98 50
126 26 157 25 157 -7z m316 -41 c7 -22 10 -43 7 -45 -5 -6 -229 -55 -248 -55
-8 0 -24 55 -25 85 0 10 233 65 247 58 4 -2 13 -22 19 -43z m-1176 -16 c3 -25
5 -47 3 -48 -2 -2 -54 -14 -116 -28 -125 -27 -122 -28 -125 38 l-2 38 105 22
c58 12 110 22 116 23 7 1 15 -20 19 -45z m574 14 c5 -13 5 -27 1 -31 -4 -5
-61 -19 -126 -32 -91 -19 -120 -22 -126 -12 -11 17 -10 35 3 43 8 5 166 41
232 53 4 0 12 -9 16 -21z m309 -65 c11 -49 24 -42 -132 -73 -59 -12 -112 -18
-116 -13 -5 4 -10 26 -12 47 -3 37 -1 40 32 49 76 20 205 44 212 38 4 -3 11
-25 16 -48z m-1150 -13 l-3 -43 -75 -21 c-41 -12 -86 -19 -100 -16 -21 4 -25
11 -28 48 -3 36 5 51 21 40 2 -2 11 3 20 10 19 16 149 42 160 32 5 -4 7 -27 5
-50z m560 8 c3 -25 0 -27 -50 -37 -29 -5 -85 -16 -125 -24 -40 -8 -75 -12 -78
-9 -3 3 -5 18 -5 34 0 24 4 28 28 29 15 0 63 9 107 19 104 23 119 22 123 -12z
m296 -20 c10 -38 7 -78 -6 -82 -54 -16 -234 -44 -239 -38 -4 4 -9 26 -12 49
l-5 42 52 11 c28 6 78 17 111 24 84 19 92 19 99 -6z m616 -25 c0 -28 -1 -28
-123 -52 -67 -13 -126 -24 -132 -25 -5 0 -11 13 -13 30 l-3 30 108 21 c153 30
163 29 163 -4z"/>
<path d="M10640 5615 c0 -24 -2 -25 -82 -27 -100 -2 -107 -2 -135 7 -16 5 -29
0 -48 -19 -14 -14 -32 -26 -38 -26 -7 0 -32 -20 -56 -44 -44 -45 -51 -77 -18
-82 10 -1 24 -10 31 -20 11 -14 26 -17 71 -15 34 1 63 8 72 17 8 8 20 14 28
14 7 0 15 3 17 8 5 11 68 42 87 42 12 0 22 13 31 39 9 28 19 41 34 43 13 2 22
11 22 23 1 11 5 27 8 36 5 10 1 19 -8 22 -12 5 -16 0 -16 -18z"/>
<path d="M4960 3323 c0 -9 -17 -13 -54 -13 -56 0 -65 -9 -66 -63 0 -29 24 -14
31 19 l7 29 1 -32 c1 -31 3 -33 40 -33 27 0 41 5 45 16 4 11 14 15 32 11 18
-3 33 3 55 25 31 32 37 48 17 49 -90 4 -108 3 -108 -8z"/>
</g>
</svg>
