<?xml version="1.0" standalone="no"?>
<!DOCTYPE svg PUBLIC "-//W3C//DTD SVG 20010904//EN"
 "http://www.w3.org/TR/2001/REC-SVG-20010904/DTD/svg10.dtd">
<svg version="1.0" xmlns="http://www.w3.org/2000/svg"
 width="1280.000000pt" height="907.000000pt" viewBox="0 0 1280.000000 907.000000"
 preserveAspectRatio="xMidYMid meet">

<g transform="translate(0.000000,907.000000) scale(0.100000,-0.100000)"
fill="#fff" stroke="none">
<path d="M4120 8148 c-107 -121 -396 -446 -642 -722 l-448 -501 0 -762 c0
-420 2 -763 5 -763 3 0 511 420 815 675 75 63 420 348 452 373 18 14 38 3 699
-401 89 -54 164 -96 167 -93 3 4 9 115 13 249 4 133 10 312 13 397 27 701 27
712 13 729 -77 89 -776 914 -821 969 -33 39 -62 72 -65 71 -4 0 -94 -100 -201
-221z"/>
<path d="M9225 6784 c-82 -52 -285 -181 -450 -285 -165 -104 -367 -232 -450
-285 -82 -52 -276 -175 -430 -273 -154 -97 -458 -290 -675 -428 -217 -137
-530 -335 -695 -440 -291 -184 -801 -508 -1421 -901 -165 -105 -334 -211 -375
-236 -41 -26 -184 -117 -319 -203 -135 -86 -321 -204 -415 -263 -156 -98 -606
-384 -800 -509 -44 -28 -78 -51 -75 -51 8 0 527 176 1065 360 259 89 607 208
775 265 168 57 622 212 1010 345 388 133 822 282 965 330 143 49 478 164 745
255 267 92 629 215 805 275 176 60 451 153 610 208 l291 100 314 -226 c173
-124 385 -276 471 -336 86 -61 319 -228 519 -371 1052 -754 1205 -863 1208
-860 4 3 -199 296 -738 1070 -64 92 -202 290 -529 760 -23 33 -99 143 -170
245 -70 102 -192 277 -271 390 -79 113 -197 284 -263 380 -67 96 -150 216
-186 267 -36 50 -131 186 -211 302 -80 116 -147 211 -150 211 -3 0 -72 -43
-155 -96z"/>
<path d="M4135 5164 c-398 -242 -699 -424 -907 -550 l-197 -119 -1 -442 0
-442 443 292 c243 162 536 356 650 432 l208 139 382 -17 c210 -10 390 -17 400
-17 16 0 17 22 17 325 0 179 -2 325 -5 325 -3 0 -166 47 -363 105 -196 58
-364 108 -372 110 -8 2 -123 -61 -255 -141z"/>
<path d="M1615 5143 c-71 -81 -170 -192 -220 -246 -49 -55 -103 -115 -118
-133 -15 -18 -113 -129 -217 -246 l-190 -212 -2 -436 c-2 -240 -2 -444 0 -453
3 -12 50 23 170 124 92 78 259 218 372 312 113 94 207 174 210 177 13 15 118
100 123 100 4 0 57 -25 119 -56 62 -31 245 -121 406 -199 l292 -144 0 467 -1
467 -92 72 c-51 39 -231 180 -400 312 -170 133 -312 241 -315 241 -4 -1 -65
-67 -137 -147z"/>
<path d="M9065 3979 c-242 -82 -593 -202 -780 -265 -187 -64 -511 -174 -720
-244 -209 -71 -639 -217 -955 -325 -847 -288 -1737 -591 -2652 -900 -290 -99
-526 -180 -525 -182 2 -1 198 38 437 87 239 49 703 143 1030 210 327 66 658
134 735 150 77 17 448 93 825 169 377 77 728 149 780 161 52 12 392 82 755
155 363 74 824 169 1025 210 l365 76 60 -27 c33 -15 141 -64 240 -110 99 -45
281 -128 405 -184 208 -94 542 -246 1225 -555 149 -67 302 -137 340 -155 39
-18 124 -57 190 -86 l120 -53 -40 35 c-22 20 -85 72 -140 116 -55 44 -145 118
-200 164 -84 69 -847 697 -1400 1150 -82 68 -268 220 -413 338 -144 119 -263
216 -265 215 -1 0 -200 -67 -442 -150z"/>
<path d="M1380 3083 c-267 -178 -491 -328 -499 -332 -11 -7 -13 -69 -12 -362
1 -194 4 -355 6 -357 2 -2 95 49 207 114 111 65 323 186 470 271 l266 153 69
0 c37 0 131 -5 208 -10 77 -5 213 -12 303 -16 l162 -7 -2 333 -3 332 -135 43
c-74 23 -222 70 -329 104 -107 33 -201 61 -210 60 -9 0 -234 -147 -501 -326z"/>
<path d="M9185 2529 c-115 -22 -313 -59 -440 -84 -126 -24 -549 -103 -940
-174 -390 -72 -721 -133 -735 -136 -72 -15 -394 -75 -890 -166 -305 -56 -584
-107 -620 -114 -189 -36 -817 -152 -1192 -221 -235 -43 -426 -79 -424 -81 3
-4 800 90 956 112 85 13 303 39 1330 161 630 75 1156 138 1170 140 14 2 456
55 983 118 l959 114 1066 -270 c1193 -301 1416 -357 1419 -354 1 1 -136 59
-305 128 -169 70 -381 158 -472 196 -91 38 -259 109 -375 157 -664 275 -918
380 -1068 444 -93 39 -179 70 -190 70 -12 -1 -116 -19 -232 -40z"/>
<path d="M1990 2100 l-205 -5 -305 -159 c-168 -88 -374 -195 -458 -238 l-152
-79 1 -67 c0 -37 3 -84 7 -104 l7 -37 210 86 c116 46 325 133 465 191 l255
106 373 4 372 4 0 154 0 154 -182 -2 c-101 -1 -275 -5 -388 -8z"/>
<path d="M0 1105 l0 -135 3093 0 3092 0 135 135 135 135 -3228 0 -3227 0 0
-135z"/>
<path d="M6460 1105 l-135 -135 3228 0 3227 0 0 135 0 135 -3093 0 -3092 0
-135 -135z"/>
<path d="M6412 755 c-76 -17 -116 -41 -172 -101 -52 -56 -76 -109 -91 -200
-22 -135 27 -294 113 -369 69 -59 135 -78 268 -79 130 -1 201 18 300 77 l55
33 3 162 2 162 -175 0 -175 0 0 -80 0 -80 75 0 75 0 0 -35 c0 -31 -5 -37 -42
-56 -55 -28 -149 -31 -195 -6 -86 46 -112 253 -45 356 60 93 194 91 247 -3 10
-18 15 -17 114 3 58 12 106 22 107 24 7 7 -37 87 -65 119 -48 55 -114 78 -234
84 -67 2 -123 -1 -165 -11z"/>
<path d="M12322 755 c-76 -17 -116 -41 -172 -101 -52 -57 -77 -112 -89 -200
-20 -141 26 -296 111 -369 69 -59 135 -78 268 -79 133 -1 195 15 293 75 l62
37 3 161 2 161 -175 0 -175 0 0 -80 0 -80 75 0 75 0 0 -35 c0 -31 -5 -37 -42
-56 -60 -31 -150 -32 -199 -2 -55 34 -74 88 -74 203 0 82 3 101 24 137 59 102
203 107 258 9 9 -17 14 -17 99 -1 116 21 119 23 105 67 -18 54 -74 113 -131
137 -67 29 -227 37 -318 16z"/>
<path d="M30 385 l0 -375 90 0 90 0 1 273 1 272 19 -70 c11 -38 43 -161 70
-272 l51 -203 82 0 83 0 69 270 69 270 3 -270 2 -271 93 3 92 3 0 370 0 370
-146 3 -146 3 -31 -118 c-17 -65 -43 -167 -58 -228 l-28 -110 -56 225 -56 225
-147 3 -147 3 0 -376z"/>
<path d="M1222 733 c-48 -122 -262 -705 -262 -713 0 -7 37 -10 112 -8 l112 3
20 63 20 62 127 0 127 0 18 -65 19 -65 118 0 c110 0 119 1 112 18 -4 9 -63
170 -132 356 -68 187 -129 348 -134 358 -9 16 -24 18 -128 18 l-119 0 -10 -27z
m172 -314 c20 -63 36 -118 36 -122 0 -4 -37 -7 -81 -7 -73 0 -81 2 -76 18 39
139 72 240 78 234 4 -4 23 -59 43 -123z"/>
<path d="M1926 393 c-75 -203 -136 -372 -136 -376 0 -4 50 -6 112 -5 l112 3
20 63 20 62 128 0 127 0 19 -62 18 -63 118 -3 c110 -2 118 -1 111 15 -4 10
-58 157 -120 328 -63 171 -122 331 -131 358 l-18 47 -122 0 -121 0 -137 -367z
m264 145 c0 -7 16 -62 35 -123 19 -60 35 -113 35 -117 0 -5 -36 -8 -81 -8 -61
0 -80 3 -76 13 2 6 20 65 38 130 19 64 37 117 41 117 5 0 8 -6 8 -12z"/>
<path d="M2537 747 c4 -8 70 -108 146 -224 l137 -210 0 -151 0 -152 110 0 110
0 0 157 0 156 140 213 c77 118 140 216 140 219 0 3 -54 5 -119 5 -138 0 -119
14 -210 -147 -29 -51 -56 -95 -60 -97 -4 -3 -41 51 -81 119 l-73 125 -124 0
c-101 0 -123 -2 -116 -13z"/>
<path d="M3532 733 c-49 -126 -262 -705 -262 -713 0 -7 39 -10 112 -8 l112 3
20 63 20 62 127 0 127 0 18 -65 19 -65 117 0 c65 0 118 1 118 3 0 1 -29 79
-64 172 -34 94 -96 261 -137 373 l-74 202 -121 0 -122 0 -10 -27z m171 -307
c20 -68 37 -127 37 -130 0 -3 -37 -6 -81 -6 -73 0 -81 2 -76 18 33 121 72 242
77 242 4 0 23 -56 43 -124z"/>
<path d="M4510 385 l0 -375 305 0 305 0 0 85 0 85 -190 0 -190 0 0 75 0 75
175 0 175 0 0 75 0 75 -175 0 -175 0 0 60 0 60 185 0 185 0 0 80 0 80 -300 0
-300 0 0 -375z"/>
<path d="M5290 385 l0 -376 103 3 102 3 5 198 5 199 135 -201 135 -201 103 0
102 0 0 375 0 375 -105 0 -105 0 0 -207 0 -208 -138 207 -137 207 -102 1 -103
0 0 -375z"/>
<path d="M7070 385 l0 -375 110 0 110 0 0 375 0 375 -110 0 -110 0 0 -375z"/>
<path d="M7500 385 l0 -375 99 0 99 0 7 103 c4 56 5 148 3 205 -3 56 -3 102
-2 102 2 0 65 -92 139 -205 l136 -205 105 0 104 0 0 375 0 375 -105 0 -105 0
0 -207 0 -208 -137 205 -138 205 -102 3 -103 3 0 -376z"/>
<path d="M8380 385 l0 -375 310 0 310 0 0 85 0 85 -195 0 -195 0 0 75 0 75
175 0 175 0 0 75 0 75 -175 0 -175 0 0 60 0 60 185 0 185 0 0 80 0 80 -300 0
-300 0 0 -375z"/>
<path d="M9160 385 l0 -375 305 0 305 0 0 85 0 85 -195 0 -195 0 0 75 0 75
175 0 175 0 0 75 0 75 -175 0 -175 0 0 60 0 60 190 0 190 0 0 80 0 80 -300 0
-300 0 0 -375z"/>
<path d="M9932 388 l3 -373 113 -3 112 -3 0 156 c0 100 4 155 10 155 6 0 25
-6 43 -13 32 -14 48 -39 158 -247 l24 -45 128 -3 127 -3 -60 120 c-61 122
-106 185 -141 196 -29 10 -23 18 32 44 69 32 102 83 107 167 3 50 0 72 -18
109 -47 97 -119 115 -453 115 l-187 0 2 -372z m386 211 c55 -19 63 -102 12
-129 -12 -7 -55 -14 -96 -17 l-74 -6 0 82 0 81 64 0 c34 0 77 -5 94 -11z"/>
<path d="M10770 385 l0 -376 113 3 112 3 0 370 0 370 -112 3 -113 3 0 -376z"/>
<path d="M11200 385 l0 -376 103 3 102 3 5 199 5 199 134 -201 134 -202 103 0
104 0 0 375 0 375 -105 0 -105 0 0 -207 0 -208 -137 205 -138 205 -102 3 -103
3 0 -376z"/>
</g>
</svg>
